<svg width="20" height="20" viewBox="0 0 20 20" fill="none" xmlns="http://www.w3.org/2000/svg">
<path id="Vector" d="M1.97405 1.64082C1.83945 1.64492 1.70709 1.67427 1.58481 1.72715C1.46253 1.78003 1.35282 1.85536 1.26217 1.94867C1.17153 2.04199 1.10179 2.15139 1.05708 2.27041C1.01238 2.38943 0.993616 2.51564 1.00191 2.64157C1.1364 4.80147 1.7704 10.0716 4.80595 13.3583C8.44092 17.3181 13.1748 18.6824 18.0317 18.4808C18.292 18.4662 18.5368 18.3596 18.7165 18.1826C18.8962 18.0055 18.9975 17.7712 19 17.5268V14.0674C18.997 13.7446 18.8783 13.4322 18.663 13.1802C18.4476 12.9282 18.1482 12.7513 17.8127 12.6779L15.3804 12.1739C15.0796 12.1138 14.7664 12.1397 14.4815 12.2481C14.1965 12.3566 13.9528 12.5427 13.7819 12.7823L13.244 13.5454C13.1946 13.6153 13.1208 13.6668 13.0352 13.6911C12.9496 13.7154 12.8577 13.711 12.7752 13.6786C11.5379 13.1783 6.60806 11.0184 6.06628 7.37534C6.05566 7.30498 6.06751 7.23326 6.10033 7.1692C6.13316 7.10514 6.18548 7.05161 6.25071 7.01536L7.2267 6.45739C7.4944 6.30196 7.70467 6.07324 7.82906 5.80218C7.95345 5.53112 7.98596 5.2308 7.92218 4.94186L7.38808 2.62358C7.31 2.29875 7.11418 2.00932 6.83395 1.80454C6.55371 1.59976 6.20639 1.4923 5.8511 1.50043L1.97405 1.64082Z" stroke="#ED2027" stroke-width="1.5"/>
</svg>
