<svg width="11" height="14" viewBox="0 0 11 14" fill="none" xmlns="http://www.w3.org/2000/svg">
<path id=" " d="M10.7896 6.62967L9.21143 6.05446C8.50076 5.7989 7.85339 5.315 7.33128 4.64906C6.80917 3.98311 6.42978 3.15741 6.22942 2.25095L5.77845 0.238073C5.75577 0.167649 5.71718 0.107415 5.6676 0.065024C5.61802 0.0226333 5.55968 0 5.49999 0C5.4403 0 5.38195 0.0226333 5.33237 0.065024C5.28279 0.107415 5.24421 0.167649 5.22153 0.238073L4.77055 2.25095C4.57019 3.15741 4.1908 3.98311 3.66869 4.64906C3.14658 5.315 2.49922 5.7989 1.78854 6.05446L0.210409 6.62967C0.149814 6.65161 0.0964832 6.69816 0.0585081 6.76226C0.020533 6.82635 -1.32504e-05 6.9045 -1.32504e-05 6.98484C-1.32504e-05 7.06518 0.020533 7.14333 0.0585081 7.20743C0.0964832 7.27153 0.149814 7.31808 0.210409 7.34001L1.78854 7.91523C2.49922 8.17078 3.14658 8.65468 3.66869 9.32063C4.1908 9.98657 4.57019 10.8123 4.77055 11.7187L5.22153 13.7316C5.23873 13.8089 5.27522 13.8769 5.32547 13.9254C5.37573 13.9738 5.437 14 5.49999 14C5.56298 14 5.62425 13.9738 5.6745 13.9254C5.72475 13.8769 5.76125 13.8089 5.77845 13.7316L6.22942 11.7187C6.42978 10.8123 6.80917 9.98657 7.33128 9.32063C7.85339 8.65468 8.50076 8.17078 9.21143 7.91523L10.7896 7.34001C10.8502 7.31808 10.9035 7.27153 10.9415 7.20743C10.9794 7.14333 11 7.06518 11 6.98484C11 6.9045 10.9794 6.82635 10.9415 6.76226C10.9035 6.69816 10.8502 6.65161 10.7896 6.62967Z" fill="#ED2027"/>
</svg>
