<svg width="59" height="59" viewBox="0 0 59 59" fill="none" xmlns="http://www.w3.org/2000/svg">
<g id="Vector">
<path d="M26.3867 34.3752C26.4002 34.3648 26.4134 34.3539 26.4261 34.3427C26.4383 34.332 26.4502 34.3209 26.4616 34.3094C26.5104 34.2606 26.5528 34.2067 26.5887 34.1476C26.6892 33.9824 26.7395 33.7771 26.7395 33.5315C26.7395 33.1981 26.6469 32.9435 26.4616 32.7675C26.3556 32.6615 26.2193 32.5874 26.0527 32.5453C25.9429 32.5175 25.8199 32.5036 25.6838 32.5036H22.8998L24.5031 30.9201C24.7356 30.6926 24.9419 30.4721 25.122 30.2584C25.1395 30.2376 25.1568 30.2169 25.1738 30.1962C25.3024 30.0402 25.4168 29.888 25.5171 29.7394C25.7764 29.369 25.9616 28.9986 26.0727 28.6281C26.1931 28.2577 26.2533 27.8781 26.2533 27.4891C26.2533 26.8687 26.119 26.3501 25.8505 25.9334C25.5819 25.5074 25.1883 25.1833 24.6698 24.961C24.4362 24.8591 24.1763 24.7806 23.8901 24.7254C23.5523 24.6602 23.1779 24.6277 22.7668 24.6277C22.6464 24.6277 22.526 24.6311 22.4056 24.638C22.063 24.6576 21.7203 24.7051 21.3777 24.7805C21.3351 24.79 21.2926 24.8002 21.2502 24.8109L21.2164 24.8196L21.1804 24.8291C20.9896 24.8803 20.8013 24.9432 20.6155 25.0178C20.4305 25.092 20.248 25.1778 20.068 25.2751L20.0581 25.2805C20.026 25.2978 19.9952 25.3157 19.9658 25.3343C19.7742 25.4553 19.6383 25.604 19.558 25.7806C19.4654 25.975 19.433 26.1741 19.4608 26.3779C19.4978 26.5816 19.5812 26.7622 19.7108 26.9196C19.8497 27.077 20.0164 27.1789 20.2109 27.2252C20.4146 27.2715 20.6415 27.2391 20.8915 27.128C20.9344 27.1059 20.9768 27.0848 21.0188 27.0647L21.0259 27.0613C21.196 26.9805 21.3594 26.9167 21.5159 26.8698C21.5774 26.8514 21.6378 26.8356 21.6972 26.8224C21.7386 26.8116 21.7797 26.8018 21.8204 26.7928L21.829 26.7909C22.0306 26.7471 22.2228 26.7251 22.4056 26.7251C22.535 26.7251 22.6554 26.7329 22.7668 26.7485C22.9598 26.7754 23.1259 26.8257 23.2648 26.8994C23.3154 26.9262 23.3623 26.9561 23.4057 26.9891C23.6372 27.165 23.753 27.4289 23.753 27.7808C23.753 28.0586 23.6743 28.3364 23.5168 28.6143C23.4789 28.6855 23.4339 28.7604 23.3819 28.8389C23.2764 28.9983 23.1421 29.1727 22.9789 29.3621L22.9721 29.37C22.904 29.4489 22.8309 29.5303 22.7529 29.6144L20.322 32.1564C20.2133 32.2705 20.1157 32.3863 20.0293 32.5036L20.0181 32.5191L20.0076 32.5336C19.9553 32.6063 19.9073 32.6797 19.8636 32.7537C19.7525 32.9574 19.6969 33.1889 19.6969 33.4482C19.6969 33.8186 19.7849 34.101 19.9609 34.2955C20.0882 34.4228 20.268 34.5064 20.5003 34.5462C20.606 34.5643 20.7225 34.5733 20.8499 34.5733H25.6838C25.9807 34.5733 26.215 34.5073 26.3867 34.3752Z" fill="#C9CACE"/>
<path fill-rule="evenodd" clip-rule="evenodd" d="M31.5818 32.9342V33.4343C31.5818 33.851 31.6883 34.1659 31.9013 34.3788C32.1236 34.5918 32.4292 34.6983 32.8181 34.6983C33.214 34.6983 33.5138 34.593 33.7175 34.3825L33.721 34.3788C33.8411 34.2535 33.9274 34.0987 33.9797 33.9144C34.0202 33.772 34.0405 33.6119 34.0405 33.4343V32.9342H34.3738C34.7047 32.9342 34.9579 32.8605 35.1332 32.7131C35.1443 32.7038 35.1551 32.6941 35.1656 32.6842C35.2381 32.619 35.2964 32.5424 35.3405 32.4545C35.3568 32.422 35.3711 32.3881 35.3835 32.3525C35.4235 32.2383 35.4434 32.1081 35.4434 31.9619C35.4434 31.7276 35.389 31.5342 35.2802 31.3815C35.2518 31.3418 35.2198 31.3048 35.1841 31.2706C35.178 31.2648 35.1719 31.2591 35.1656 31.2535C35.1551 31.2435 35.1443 31.2339 35.1332 31.2245C35.0948 31.1923 35.0527 31.1636 35.0069 31.1384C34.8434 31.0484 34.6323 31.0034 34.3738 31.0034H34.0405V25.9195C34.0405 25.4935 33.9386 25.1787 33.7349 24.9749C33.5312 24.7619 33.2533 24.6554 32.9014 24.6554C32.5866 24.6554 32.3134 24.7203 32.0819 24.8499C31.8504 24.9796 31.642 25.1833 31.4568 25.4611L28.0675 30.4061C28.0124 30.4828 27.9617 30.5566 27.9153 30.6277C27.8496 30.7283 27.7926 30.8233 27.7442 30.9127C27.7275 30.9436 27.7119 30.9739 27.6973 31.0034C27.6685 31.0616 27.6438 31.1171 27.623 31.1701C27.5661 31.3093 27.5286 31.4529 27.5105 31.6007C27.5077 31.624 27.5054 31.6474 27.5035 31.6709C27.5019 31.6903 27.5007 31.7098 27.4998 31.7294C27.4986 31.7558 27.498 31.7824 27.498 31.8091C27.498 32.1888 27.6091 32.4712 27.8314 32.6564C28.0629 32.8416 28.3824 32.9342 28.7898 32.9342H31.5818ZM31.5818 31.0034V28.3025L29.7618 31.0034H31.5818Z" fill="#C9CACE"/>
<path d="M35.9482 29.2933C35.9598 29.2314 35.9772 29.1747 36.0004 29.1234C36.0301 29.0577 36.0691 29.0007 36.1175 28.9522C36.1659 28.9039 36.2219 28.865 36.2857 28.8354C36.3842 28.7897 36.5011 28.7663 36.6364 28.7652L36.6463 28.7651C36.6686 28.7651 36.6903 28.7657 36.7116 28.7669C36.7201 28.7673 36.7284 28.7678 36.7367 28.7685C36.9263 28.7829 37.0751 28.8442 37.1832 28.9522C37.2071 28.9751 37.2288 28.9999 37.2483 29.0267C37.3243 29.1308 37.367 29.2641 37.3764 29.4265C37.3778 29.4495 37.3784 29.4731 37.3784 29.4973V31.0595C37.4221 31.0004 37.4698 30.9456 37.5214 30.8951C37.6045 30.8138 37.6979 30.7438 37.8014 30.6849C37.8943 30.6333 37.9919 30.5915 38.0943 30.5596C38.1211 30.5512 38.1482 30.5435 38.1757 30.5365C38.3187 30.4999 38.4706 30.4816 38.6312 30.4816C38.9511 30.4816 39.2142 30.5439 39.4202 30.6687C39.4808 30.7038 39.537 30.7449 39.5887 30.7922C39.5963 30.7992 39.6038 30.8062 39.6111 30.8134L39.6227 30.8248L39.6237 30.8258C39.7314 30.9345 39.8181 31.072 39.8839 31.2381C39.9869 31.493 40.0385 31.8157 40.0385 32.2061V33.9144C40.0385 34.153 39.9761 34.3347 39.8514 34.4594C39.7726 34.5382 39.6723 34.5921 39.5503 34.6211C39.4791 34.638 39.4005 34.6465 39.3145 34.6465C39.0813 34.6465 38.9023 34.5842 38.7776 34.4594C38.6529 34.3347 38.5905 34.153 38.5905 33.9144V32.2631C38.5905 32.2436 38.5902 32.2247 38.5897 32.2061C38.5887 32.1736 38.5869 32.1424 38.5842 32.1127L38.582 32.09L38.5805 32.0763L38.5784 32.0595L38.5771 32.0502C38.5715 32.0098 38.5641 31.9724 38.5548 31.9378C38.5405 31.8842 38.5219 31.8376 38.499 31.7979L38.4934 31.7885C38.4832 31.7718 38.4722 31.7565 38.4603 31.7424C38.4288 31.7025 38.3912 31.6703 38.3474 31.6458C38.3418 31.6427 38.3361 31.6397 38.3302 31.6368C38.2849 31.6143 38.2333 31.5996 38.1757 31.5926C38.1498 31.5894 38.1227 31.5879 38.0943 31.5879C38.0282 31.5879 37.9661 31.5944 37.908 31.6075C37.8233 31.6266 37.7471 31.6597 37.6796 31.7067C37.6415 31.7332 37.6062 31.7641 37.5737 31.7994C37.5275 31.8474 37.4896 31.9016 37.4598 31.9619C37.4166 32.0494 37.3906 32.1498 37.3818 32.2631C37.3796 32.292 37.3784 32.3219 37.3784 32.3525V33.9144C37.3784 34.4025 37.1344 34.6465 36.6463 34.6465C36.5643 34.6465 36.4889 34.6384 36.4203 34.6223C36.3974 34.6169 36.3753 34.6106 36.354 34.6034C36.2761 34.5773 36.2081 34.5393 36.1499 34.4894C36.1434 34.4838 36.137 34.4781 36.1307 34.4722C36.1263 34.468 36.1219 34.4638 36.1175 34.4594C35.9928 34.3347 35.9305 34.153 35.9305 33.9144V29.4973C35.9305 29.4239 35.9364 29.3559 35.9482 29.2933Z" fill="#C9CACE"/>
<path fill-rule="evenodd" clip-rule="evenodd" d="M0 29.5C0 13.2071 13.2071 0 29.5 0C45.7928 0 59 13.2071 59 29.5C59 45.7928 45.7928 59 29.5 59C13.2071 59 0 45.7928 0 29.5ZM18.3732 35.8831C18.3468 35.8567 18.321 35.8296 18.2959 35.8019C17.6171 35.0516 17.4517 34.1464 17.4517 33.4482C17.4517 32.8581 17.5812 32.2493 17.8925 31.6785C17.9048 31.6559 17.9175 31.6336 17.9306 31.6114C18.1484 31.243 18.4089 30.9095 18.6961 30.6079L18.6993 30.6046L19.8166 29.4362C19.7823 29.4297 19.7479 29.4225 19.7133 29.4146L19.6908 29.4094C19.0223 29.2502 18.4563 28.8914 18.0273 28.4051C18.0104 28.386 17.9939 28.3666 17.9777 28.3469C17.6006 27.8891 17.3562 27.3541 17.2518 26.7795C17.2458 26.7469 17.2406 26.7141 17.2361 26.6812C17.1473 26.0299 17.2575 25.3976 17.5227 24.8326C17.8604 24.1023 18.4209 23.613 18.9893 23.306C19.5889 22.9805 20.2223 22.7387 20.8859 22.5897L20.8953 22.5876C21.5129 22.4518 22.1377 22.3824 22.7668 22.3824C23.7262 22.3824 24.6866 22.5202 25.5609 22.9002C26.4394 23.2781 27.2056 23.8773 27.7439 24.7266C28.0158 25.1509 28.2033 25.6011 28.3234 26.0614L29.5979 24.2018C29.9296 23.708 30.3794 23.23 30.9849 22.8909C31.6091 22.5414 32.2743 22.4102 32.9014 22.4102C33.7312 22.4102 34.6345 22.678 35.3406 23.4055C36.115 24.1925 36.2857 25.1869 36.2857 25.9195V26.5395C36.4102 26.5259 36.5311 26.5199 36.6463 26.5199C37.271 26.5199 38.0888 26.6936 38.7538 27.3478C39.0578 27.6438 39.263 27.9733 39.3973 28.304C39.7818 28.3746 40.1805 28.5078 40.5643 28.7367C41.2676 29.1503 41.715 29.7679 41.9683 30.4037C42.2124 31.0109 42.2837 31.6413 42.2837 32.2061V33.9144C42.2837 34.5326 42.1162 35.3699 41.439 36.0471C40.7709 36.7151 39.9445 36.8918 39.3145 36.8918C38.9204 36.8918 38.4494 36.8227 37.9885 36.6074C37.5074 36.8311 37.0229 36.8918 36.6463 36.8918C36.111 36.8918 35.4549 36.7624 34.8698 36.3376C34.2041 36.8031 33.4503 36.9436 32.8181 36.9436C32.0097 36.9436 31.0906 36.7117 30.3478 35.9999C30.3363 35.9889 30.325 35.9777 30.3137 35.9665C30.0677 35.7205 29.8794 35.4538 29.7369 35.1795H28.7898C28.7236 35.1795 28.6561 35.1781 28.5876 35.1752C28.4517 35.4272 28.2751 35.6712 28.0493 35.897C27.314 36.6323 26.3926 36.8186 25.6838 36.8186H20.8499C20.1691 36.8186 19.1627 36.6726 18.3732 35.8831ZM24.6632 13.2776C25.2499 13.0949 25.8384 12.9448 26.4267 12.8261C35.8246 10.9944 44.9708 17.0615 46.9171 26.4627C48.5329 34.2671 44.6824 41.9328 37.9771 45.4845C37.914 45.5093 37.8516 45.5372 37.79 45.5684C37.093 45.9216 36.364 46.2322 35.6048 46.4955L36.1435 45.0643C36.5577 43.9638 36.0013 42.7359 34.9008 42.3217C33.8003 41.9075 32.5724 42.4638 32.1582 43.5643L30.0419 49.1869C29.6979 50.101 30.0199 51.132 30.8232 51.6878L35.5697 54.9717C36.5367 55.6408 37.863 55.3992 38.532 54.4322C39.201 53.4652 38.9595 52.139 37.9925 51.4699L36.7717 50.6253C40.8638 49.2415 44.3256 46.7151 46.867 43.4876C46.973 43.3948 47.0713 43.2901 47.1599 43.1737C48.6412 41.2292 49.7874 39.0466 50.5472 36.7233C50.6056 36.5449 50.6391 36.3644 50.6498 36.1854C51.446 33.5009 51.7323 30.6311 51.4187 27.7126C51.4526 27.5075 51.4569 27.2939 51.4275 27.0772C51.266 25.8852 51.0034 24.692 50.6347 23.508C50.2661 22.3241 49.8049 21.1927 49.2612 20.1197C49.163 19.926 49.0393 19.7536 48.8963 19.6048C47.5192 17.072 45.6671 14.8741 43.4815 13.1041C43.3647 12.9468 43.2241 12.8031 43.0604 12.6784C41.1159 11.1972 38.9333 10.051 36.6099 9.29114C36.4549 9.24042 36.2981 9.20844 36.1423 9.19395C33.3317 8.33122 30.3129 8.02896 27.2443 8.39127C27.1517 8.39165 27.0581 8.39806 26.9638 8.41083C26.0169 8.53917 25.069 8.73133 24.1257 8.98977C18.3296 10.5411 13.6591 14.3347 10.8674 19.222C10.7661 19.3993 10.6931 19.585 10.647 19.7739C10.06 20.8795 9.56801 22.0354 9.17782 23.2284C8.81156 24.3483 9.42249 25.5531 10.5424 25.9193C11.6623 26.2856 12.867 25.6747 13.2333 24.5548C13.8447 22.6853 14.7674 20.9283 15.9593 19.3636C16.0635 19.2269 16.1486 19.0816 16.2151 18.931C17.6814 17.1344 19.5077 15.6219 21.614 14.5147C21.7227 14.4802 21.83 14.4365 21.935 14.3833C22.7967 13.9467 23.7073 13.5752 24.6632 13.2776ZM10.1251 30.4739C11.2927 30.3157 12.3675 31.134 12.5257 32.3015C12.6554 33.2587 12.8666 34.2193 13.1643 35.1752C13.4619 36.1311 13.8333 37.0417 14.2699 37.9033C14.8025 38.9544 14.3822 40.2381 13.3312 40.7707C12.2802 41.3033 10.9964 40.883 10.4639 39.832C9.92016 38.759 9.45899 37.6276 9.09035 36.4437C8.7217 35.2597 8.45905 34.0665 8.29752 32.8745C8.13929 31.707 8.95754 30.6322 10.1251 30.4739ZM19.2503 43.8791C18.313 43.1651 16.9744 43.3461 16.2604 44.2833C15.5464 45.2206 15.7274 46.5592 16.6646 47.2732C18.6091 48.7545 20.7918 49.9007 23.1151 50.6606C24.235 51.0268 25.4398 50.4159 25.806 49.296C26.1723 48.1761 25.5614 46.9714 24.4415 46.6051C22.5719 45.9936 20.815 45.071 19.2503 43.8791Z" fill="#C9CACE"/>
<path d="M20.8499 34.5733C20.4424 34.5733 20.1461 34.4807 19.9609 34.2955C19.7849 34.101 19.6969 33.8186 19.6969 33.4482C19.6969 33.1889 19.7525 32.9574 19.8636 32.7537C19.984 32.5499 20.1368 32.3508 20.322 32.1564L22.7529 29.6144C23.114 29.2254 23.3687 28.8921 23.5168 28.6143C23.6743 28.3364 23.753 28.0586 23.753 27.7808C23.753 27.4289 23.6372 27.165 23.4057 26.9891C23.1742 26.8131 22.8408 26.7251 22.4056 26.7251C22.1833 26.7251 21.9472 26.7576 21.6972 26.8224C21.4471 26.8779 21.1786 26.9798 20.8915 27.128C20.6415 27.2391 20.4146 27.2715 20.2109 27.2252C20.0164 27.1789 19.8497 27.077 19.7108 26.9196C19.5812 26.7622 19.4978 26.5816 19.4608 26.3779C19.433 26.1741 19.4654 25.975 19.558 25.7806C19.6506 25.5769 19.8173 25.4102 20.0581 25.2805C20.4841 25.049 20.9239 24.8823 21.3777 24.7805C21.8407 24.6786 22.3037 24.6277 22.7668 24.6277C23.5261 24.6277 24.1604 24.7388 24.6698 24.961C25.1883 25.1833 25.5819 25.5074 25.8505 25.9334C26.119 26.3501 26.2533 26.8687 26.2533 27.4891C26.2533 27.8781 26.1931 28.2577 26.0727 28.6281C25.9616 28.9986 25.7764 29.369 25.5171 29.7394C25.2671 30.1098 24.9291 30.5034 24.5031 30.9201L22.2528 33.1427V32.5037L25.6838 32.5036C26.0264 32.5036 26.2857 32.5916 26.4616 32.7675C26.6469 32.9435 26.7395 33.1981 26.7395 33.5315C26.7395 33.8649 26.6469 34.1242 26.4616 34.3094C26.2857 34.4853 26.0264 34.5733 25.6838 34.5733H20.8499Z" fill="#C9CACE"/>
<path d="M32.8181 34.6983C32.4292 34.6983 32.1236 34.5918 31.9013 34.3788C31.6883 34.1659 31.5818 33.851 31.5818 33.4343V32.9342H28.7898C28.3824 32.9342 28.0629 32.8416 27.8314 32.6564C27.6091 32.4712 27.498 32.1888 27.498 31.8091C27.498 31.5868 27.5397 31.3739 27.623 31.1701C27.7064 30.9571 27.8545 30.7025 28.0675 30.4061L31.4568 25.4611C31.642 25.1833 31.8504 24.9796 32.0819 24.8499C32.3134 24.7203 32.5866 24.6554 32.9014 24.6554C33.2533 24.6554 33.5312 24.7619 33.7349 24.9749C33.9386 25.1787 34.0405 25.4935 34.0405 25.9195V31.0034H34.3738C34.7257 31.0034 34.9897 31.0868 35.1656 31.2535C35.3508 31.4202 35.4434 31.6563 35.4434 31.9619C35.4434 32.2767 35.3508 32.5175 35.1656 32.6842C34.9897 32.8509 34.7257 32.9342 34.3738 32.9342H34.0405V33.4343C34.0405 33.8417 33.934 34.1566 33.721 34.3788C33.5173 34.5918 33.2163 34.6983 32.8181 34.6983ZM31.5818 31.0034L31.5819 27.7254H31.9708L29.3594 31.6008V31.0035L31.5818 31.0034Z" fill="#C9CACE"/>
<path d="M36.6463 34.6465C36.4185 34.6465 36.2423 34.5842 36.1175 34.4594C35.9928 34.3347 35.9305 34.153 35.9305 33.9144V29.4973C35.9305 29.2586 35.9928 29.077 36.1175 28.9522C36.2423 28.8275 36.4185 28.7651 36.6463 28.7651C36.8795 28.7651 37.0585 28.8275 37.1832 28.9522C37.3133 29.077 37.3784 29.2586 37.3784 29.4973L37.3785 31.2707H37.2483C37.3785 31.0158 37.5628 30.8205 37.8014 30.6849C38.0455 30.5494 38.322 30.4816 38.6312 30.4816C38.9511 30.4816 39.2142 30.5439 39.4202 30.6687C39.6263 30.788 39.7809 30.9778 39.8839 31.2381C39.9869 31.493 40.0385 31.8157 40.0385 32.2061V33.9144C40.0385 34.153 39.9761 34.3347 39.8514 34.4594C39.7266 34.5842 39.5477 34.6465 39.3145 34.6465C39.0813 34.6465 38.9023 34.5842 38.7776 34.4594C38.6529 34.3347 38.5905 34.153 38.5905 33.9144V32.2631C38.5905 32.019 38.5471 31.8455 38.4603 31.7424C38.379 31.6394 38.257 31.5879 38.0943 31.5879C37.8773 31.5879 37.7038 31.6584 37.5737 31.7994C37.4435 31.935 37.3784 32.1193 37.3784 32.3525V33.9144C37.3784 34.4025 37.1344 34.6465 36.6463 34.6465Z" fill="#C9CACE"/>
</g>
</svg>
