<svg width="56" height="24" viewBox="0 0 56 24" fill="none" xmlns="http://www.w3.org/2000/svg">
<g id="Group 1000010812">
<path id="sparkle" d="M33.113 11.3829L36.4606 10.4243C37.9681 9.99833 39.3413 9.19183 40.4488 8.08193C41.5563 6.97202 42.3611 5.59584 42.7861 4.08509L43.7427 0.730285C43.7908 0.612911 43.8726 0.512521 43.9778 0.441869C44.083 0.371218 44.2067 0.333496 44.3334 0.333496C44.46 0.333496 44.5837 0.371218 44.6889 0.441869C44.7941 0.512521 44.8759 0.612911 44.924 0.730285L45.8807 4.08509C46.3057 5.59584 47.1104 6.97202 48.2179 8.08193C49.3254 9.19183 50.6986 9.99833 52.2061 10.4243L55.5537 11.3829C55.6822 11.4195 55.7953 11.4971 55.8759 11.6039C55.9564 11.7108 56 11.841 56 11.9749C56 12.1088 55.9564 12.239 55.8759 12.3459C55.7953 12.4527 55.6822 12.5303 55.5537 12.5669L52.2061 13.5255C50.6986 13.9515 49.3254 14.758 48.2179 15.8679C47.1104 16.9778 46.3057 18.354 45.8807 19.8647L44.924 23.2195C44.8876 23.3483 44.8101 23.4617 44.7035 23.5424C44.5969 23.6232 44.467 23.6668 44.3334 23.6668C44.1997 23.6668 44.0698 23.6232 43.9632 23.5424C43.8566 23.4617 43.7792 23.3483 43.7427 23.2195L42.7861 19.8647C42.3611 18.354 41.5563 16.9778 40.4488 15.8679C39.3413 14.758 37.9681 13.9515 36.4606 13.5255L33.113 12.5669C32.9845 12.5303 32.8714 12.4527 32.7908 12.3459C32.7103 12.239 32.6667 12.1088 32.6667 11.9749C32.6667 11.841 32.7103 11.7108 32.7908 11.6039C32.8714 11.4971 32.9845 11.4195 33.113 11.3829Z" fill="#ED2027"/>
<path id="Vector" d="M0 12.0072C0 13.298 0.856541 14.3334 1.89828 14.3334H49V9.66675H1.89828C0.844967 9.68093 0 10.7306 0 12.0072Z" fill="#ED2027"/>
</g>
</svg>
