<svg width="56" height="57" viewBox="0 0 56 57" fill="none" xmlns="http://www.w3.org/2000/svg">
<g id="Vector">
<path fill-rule="evenodd" clip-rule="evenodd" d="M39.889 2.29811C39.886 0.983204 38.8876 -0.0029749 37.6248 6.74299e-06C36.3326 0.00300194 35.3635 0.989181 35.3665 2.30409L35.3694 4.39598L17.9255 4.41989L17.9226 2.32799C17.9197 1.01309 16.9506 0.0269093 15.6584 0.0298977C14.3663 0.0298977 13.3972 1.01907 13.4001 2.33397L13.403 4.57529C5.20971 5.33136 -0.0117072 10.9287 1.97123e-05 19.5921L0.032343 41.6903C0.0440897 51.1008 5.98206 57.0119 15.3236 57L36.0476 56.973C31.9987 54.455 29.3167 50.0588 29.3167 45.0563C29.3167 42.056 30.2815 39.2737 31.9273 36.984C31.5989 36.7516 31.3847 36.3707 31.3847 35.9401V31.7908C31.3847 31.0831 31.9633 30.5094 32.677 30.5094H36.8616C37.5754 30.5094 38.154 31.0831 38.154 31.7908V32.0539C39.9314 31.3114 41.8913 30.9 43.9506 30.9C47.6131 30.9 50.9613 32.2014 53.5279 34.3523L53.5063 19.4038C53.4975 10.7972 48.0852 5.18492 39.8919 4.53942L39.889 2.29811ZM17.9314 9.02206L35.3753 8.99815L35.3782 11.4188C35.3782 12.7038 36.3503 13.7199 37.6424 13.7169C38.9052 13.7169 39.9007 12.6978 39.9007 11.4128L39.8978 9.11171C45.6537 9.61376 48.8605 12.9847 48.9868 19.4098V20.4558L4.52546 20.5155L4.52251 19.5861C4.51372 13.1042 7.68239 9.72135 13.4089 9.14458L13.4119 11.4457C13.4119 12.7337 14.3839 13.7468 15.676 13.7438C16.9682 13.7438 17.9343 12.7277 17.9343 11.4397L17.9314 9.02206ZM6.7691 31.7908C6.7691 31.0831 7.34769 30.5094 8.06142 30.5094H12.246C12.9598 30.5094 13.5384 31.0831 13.5384 31.7908V35.9401C13.5384 36.6478 12.9598 37.2215 12.246 37.2215H8.06142C7.34769 37.2215 6.7691 36.6478 6.7691 35.9401V31.7908ZM8.06142 41.493C7.34769 41.493 6.7691 42.0667 6.7691 42.7744V46.9237C6.7691 47.6314 7.34769 48.2051 8.06142 48.2051H12.246C12.9598 48.2051 13.5384 47.6314 13.5384 46.9237V42.7744C13.5384 42.0667 12.9598 41.493 12.246 41.493H8.06142ZM19.0771 31.7908C19.0771 31.0831 19.6557 30.5094 20.3694 30.5094H24.554C25.2677 30.5094 25.8463 31.0831 25.8463 31.7908V35.9401C25.8463 36.6478 25.2677 37.2215 24.554 37.2215H20.3694C19.6557 37.2215 19.0771 36.6478 19.0771 35.9401V31.7908ZM20.3694 41.493C19.6557 41.493 19.0771 42.0667 19.0771 42.7744V46.9237C19.0771 47.6314 19.6557 48.2051 20.3694 48.2051H24.554C25.2677 48.2051 25.8463 47.6314 25.8463 46.9237V42.7744C25.8463 42.0667 25.2677 41.493 24.554 41.493H20.3694Z" fill="#C9CACE"/>
<path fill-rule="evenodd" clip-rule="evenodd" d="M44 33.5605C37.3723 33.5605 31.9999 38.7509 31.9999 45.1541C31.9999 51.5572 37.3723 56.7476 44 56.7476C50.6276 56.7476 56 51.5572 56 45.1541C56 38.7509 50.6276 33.5605 44 33.5605ZM45.5999 40.2722C45.5999 39.5645 45.0213 38.9908 44.3076 38.9908C43.5938 38.9908 43.0152 39.5645 43.0152 40.2722V46.2337C43.0152 46.7395 43.3153 47.198 43.7812 47.404L46.8581 48.7647C47.5099 49.053 48.274 48.7627 48.5647 48.1164C48.8555 47.4701 48.5627 46.7124 47.9109 46.4242L45.5999 45.4021V40.2722Z" fill="#C9CACE"/>
</g>
</svg>
