<svg width="24" height="24" viewBox="0 0 24 24" fill="none" xmlns="http://www.w3.org/2000/svg">
<g id="Group 1000010746">
<path id="Vector" d="M23.9999 11.9977C23.9991 9.70413 23.3412 7.45878 22.1041 5.52753C20.867 3.59628 19.1026 2.06 17.0197 1.10056C14.9368 0.141115 12.6226 -0.201302 10.3512 0.113841C8.07973 0.428984 5.94613 1.38849 4.20297 2.87877C2.45982 4.36904 1.18012 6.32768 0.515326 8.5228C-0.149466 10.7179 -0.171508 13.0576 0.451855 15.2648C1.07522 17.4721 2.31788 19.4545 4.03268 20.9773C5.74749 22.5001 7.86261 23.4996 10.1277 23.8575V15.4715H7.09552V11.9977H10.1481V9.35169C10.1481 6.34604 11.9389 4.68377 14.6794 4.68377C15.5885 4.69546 16.4955 4.77483 17.3928 4.92124V7.87261H15.8801C15.6191 7.83125 15.352 7.85004 15.0994 7.92753C14.8467 8.00503 14.615 8.13918 14.422 8.31978C14.229 8.50038 14.0798 8.72266 13.9857 8.96968C13.8916 9.2167 13.8551 9.48194 13.879 9.7452V11.9977H17.2097L16.6806 15.4715H13.879V23.8575C16.701 23.4086 19.2705 21.9678 21.1256 19.7939C22.9807 17.6201 23.9999 14.8558 23.9999 11.9977Z" fill="#1E1E21"/>
<path id="Vector_2" d="M16.675 15.4718L17.2041 11.998H13.8802V9.74551C13.8575 9.48618 13.8935 9.22508 13.9853 8.98151C14.0772 8.73795 14.2226 8.51814 14.4108 8.33836C14.599 8.15857 14.8252 8.0234 15.0727 7.94283C15.3202 7.86227 15.5826 7.83837 15.8406 7.87292H17.3533V4.92155C16.456 4.77514 15.549 4.69577 14.6399 4.68408C11.9265 4.68408 10.1085 6.34635 10.1085 9.35199V11.998H7.09668V15.4718H10.1492V23.8578C11.3902 24.0478 12.6528 24.0478 13.8937 23.8578V15.4718H16.675Z" fill="white"/>
</g>
</svg>
