<svg width="24" height="24" viewBox="0 0 24 24" fill="none" xmlns="http://www.w3.org/2000/svg">
<g id="Group 1000010745">
<path id="Vector" d="M12 24C18.6274 24 24 18.6274 24 12C24 5.37258 18.6274 0 12 0C5.37258 0 0 5.37258 0 12C0 18.6274 5.37258 24 12 24Z" fill="#1E1E21"/>
<g id="Group 1000010744">
<path id="Vector_2" d="M15.727 7.46191C15.5633 7.46191 15.4033 7.51045 15.2672 7.60139C15.1311 7.69232 15.0251 7.82158 14.9624 7.9728C14.8998 8.12402 14.8834 8.29042 14.9153 8.45095C14.9472 8.61149 15.026 8.75895 15.1418 8.87469C15.2575 8.99043 15.405 9.06925 15.5655 9.10118C15.7261 9.13312 15.8925 9.11673 16.0437 9.05409C16.1949 8.99146 16.3242 8.88538 16.4151 8.74928C16.506 8.61319 16.5546 8.45318 16.5546 8.2895C16.5546 8.07001 16.4674 7.85951 16.3122 7.70431C16.157 7.54911 15.9465 7.46191 15.727 7.46191Z" fill="white"/>
<path id="Vector_3" d="M12.0572 8.51953C11.3716 8.51953 10.7014 8.72283 10.1314 9.10372C9.56133 9.48461 9.11707 10.026 8.85471 10.6594C8.59234 11.2928 8.52367 11.9897 8.65742 12.6622C8.79117 13.3346 9.12131 13.9522 9.60609 14.437C10.0909 14.9218 10.7086 15.2519 11.381 15.3857C12.0534 15.5194 12.7503 15.4508 13.3837 15.1884C14.0171 14.926 14.5585 14.4817 14.9394 13.9117C15.3203 13.3417 15.5236 12.6715 15.5236 11.9859C15.5236 11.5307 15.4339 11.0799 15.2597 10.6594C15.0855 10.2388 14.8302 9.85669 14.5083 9.53481C14.1864 9.21293 13.8043 8.95759 13.3837 8.78339C12.9632 8.60919 12.5124 8.51953 12.0572 8.51953ZM12.0572 14.2041C11.6188 14.2028 11.1906 14.0715 10.8267 13.827C10.4628 13.5824 10.1796 13.2355 10.0127 12.8301C9.84586 12.4246 9.80289 11.9788 9.88925 11.549C9.9756 11.1192 10.1874 10.7246 10.4979 10.415C10.8084 10.1055 11.2036 9.89488 11.6337 9.80983C12.0638 9.72479 12.5095 9.76911 12.9144 9.9372C13.3193 10.1053 13.6654 10.3896 13.9088 10.7542C14.1523 11.1189 14.2822 11.5475 14.2822 11.9859C14.2804 12.5748 14.0452 13.139 13.6281 13.5548C13.211 13.9706 12.6461 14.2041 12.0572 14.2041Z" fill="white"/>
<path id="Vector_4" d="M14.8106 19.0206H9.19392C8.63894 19.0206 8.08936 18.9113 7.57663 18.6989C7.06389 18.4866 6.59803 18.1753 6.2056 17.7828C5.81317 17.3904 5.50186 16.9245 5.28948 16.4118C5.07709 15.899 4.96777 15.3495 4.96777 14.7945V9.17778C4.96777 8.05694 5.41305 6.98201 6.2056 6.18946C6.99815 5.39691 8.07308 4.95166 9.19392 4.95166H14.8106C15.9315 4.95166 17.0064 5.39691 17.7989 6.18946C18.5915 6.98201 19.0367 8.05694 19.0367 9.17778V14.7945C19.0367 15.3495 18.9275 15.899 18.7151 16.4118C18.5027 16.9245 18.1914 17.3904 17.7989 17.7828C17.4065 18.1753 16.9406 18.4866 16.4279 18.6989C15.9151 18.9113 15.3656 19.0206 14.8106 19.0206ZM9.19392 6.27444C8.42391 6.27444 7.68542 6.58033 7.14094 7.12481C6.59646 7.66929 6.29056 8.40776 6.29056 9.17778V14.7945C6.28878 15.1769 6.36258 15.5559 6.50768 15.9097C6.65279 16.2636 6.86636 16.5852 7.13614 16.8563C7.40592 17.1273 7.72658 17.3424 8.07972 17.4891C8.43285 17.6359 8.8115 17.7114 9.19392 17.7114H14.8106C15.1919 17.7114 15.5694 17.6363 15.9217 17.4904C16.2739 17.3445 16.594 17.1306 16.8636 16.861C17.1332 16.5914 17.3471 16.2714 17.493 15.9191C17.6389 15.5669 17.714 15.1894 17.714 14.8081V9.17778C17.714 8.40776 17.4081 7.66929 16.8636 7.12481C16.3191 6.58033 15.5806 6.27444 14.8106 6.27444H9.19392Z" fill="white"/>
</g>
</g>
</svg>
