<svg width="54" height="55" viewBox="0 0 54 55" fill="none" xmlns="http://www.w3.org/2000/svg">
<g id="Vector">
<path d="M18.7059 51.4967L2.47059 53.5986L0 42.0381L12.3529 39.9362L18.7059 51.4967Z" fill="#C9CACE"/>
<path d="M54 50.4458L39.1765 52.1973L36.7059 40.6368L47.6471 38.8852L54 50.4458Z" fill="#C9CACE"/>
<path d="M19.077 44.4069L18.3529 44.4904L24.3529 55L35.9999 54.2994L33.5525 42.8474C33.014 43.3311 32.4947 43.7817 32.0029 44.1971C28.2588 47.3596 22.8928 47.4295 19.077 44.4069Z" fill="#C9CACE"/>
<path fill-rule="evenodd" clip-rule="evenodd" d="M29.7156 41.5292C35.1402 36.9472 43.7647 28.1245 43.7647 18.344C43.7647 13.4788 41.8311 8.81298 38.3893 5.37282C34.9474 1.93266 30.2793 0 25.4118 0C20.5443 0 15.8761 1.93266 12.4343 5.37282C8.99245 8.81298 7.05884 13.4788 7.05884 18.344C7.05884 28.1245 15.6834 36.9472 21.108 41.5292C23.6182 43.6495 27.2053 43.6495 29.7156 41.5292ZM33.8824 18.2166C33.8824 22.86 30.0899 26.6242 25.4118 26.6242C20.7336 26.6242 16.9412 22.86 16.9412 18.2166C16.9412 13.5731 20.7336 9.80892 25.4118 9.80892C30.0899 9.80892 33.8824 13.5731 33.8824 18.2166Z" fill="#C9CACE"/>
</g>
</svg>
