<svg width="159" height="152" viewBox="0 0 159 152" fill="none" xmlns="http://www.w3.org/2000/svg">
<path d="M155.16 57.2221L131.243 55.3445C120.48 54.5366 110.158 51.0877 101.265 45.3278C92.3724 39.5678 85.2058 31.6897 80.4514 22.4471L69.8065 1.93958C69.3347 1.24106 68.6548 0.696326 67.8533 0.374603C67.0517 0.0528782 66.1647 -0.0313119 65.305 0.132727C64.4452 0.296765 63.6515 0.701628 63.0247 1.29587C62.398 1.89011 61.9664 2.64691 61.7849 3.47008L59.4384 26.4563C58.4211 36.8001 54.6586 46.7635 48.5111 55.3931C42.3635 64.0228 34.0366 71.0298 24.3271 75.7438L2.78211 86.2953C1.95454 86.6988 1.28234 87.3483 0.867488 88.1452C0.452638 88.942 0.317791 89.8428 0.4834 90.7108C0.649009 91.5788 1.10604 92.3666 1.78514 92.9548C2.46425 93.5429 3.32836 93.8993 4.24636 93.9697L28.1628 95.8473C38.9259 96.6552 49.2477 100.104 58.1408 105.864C67.0338 111.624 74.2004 119.502 78.9547 128.745L89.5997 149.252C90.0067 150.04 90.6726 150.675 91.4963 151.06C92.3199 151.445 93.2565 151.56 94.1637 151.387C95.071 151.214 95.8995 150.762 96.5235 150.101C97.1475 149.439 97.5329 148.604 97.6213 147.722L99.9678 124.736C100.985 114.392 104.748 104.428 110.895 95.7987C117.043 87.1691 125.37 80.162 135.079 75.448L156.624 64.8965C157.452 64.493 158.124 63.8436 158.539 63.0467C158.954 62.2498 159.088 61.349 158.923 60.4811C158.757 59.6131 158.3 58.8252 157.621 58.2371C156.942 57.6489 156.078 57.2926 155.16 57.2221Z" fill="#ED2027"/>
</svg>
