<svg width="19" height="20" viewBox="0 0 19 20" fill="none" xmlns="http://www.w3.org/2000/svg">
<g id="Ic_24-Map-pin" clip-path="url(#clip0_261_1143)">
<path id="Vector" d="M16.625 8.41675C16.625 12.2675 13.1847 15.736 11.0853 17.4941C10.1568 18.2717 8.84324 18.2717 7.91472 17.4941C5.81526 15.736 2.375 12.2675 2.375 8.41675C2.375 6.52708 3.12567 4.71481 4.46186 3.37861C5.79806 2.04242 7.61033 1.29175 9.5 1.29175C11.3897 1.29175 13.2019 2.04242 14.5381 3.37861C15.8743 4.71481 16.625 6.52708 16.625 8.41675Z" stroke="white" stroke-linecap="round" stroke-linejoin="round"/>
<path id="Vector_2" d="M9.5 10.7917C10.8117 10.7917 11.875 9.72842 11.875 8.41675C11.875 7.10507 10.8117 6.04175 9.5 6.04175C8.18832 6.04175 7.125 7.10507 7.125 8.41675C7.125 9.72842 8.18832 10.7917 9.5 10.7917Z" stroke="white" stroke-linecap="round" stroke-linejoin="round"/>
</g>
<defs>
<clipPath id="clip0_261_1143">
<rect width="19" height="19" fill="white" transform="translate(0 0.5)"/>
</clipPath>
</defs>
</svg>
