<svg width="46" height="46" viewBox="0 0 46 46" fill="none" xmlns="http://www.w3.org/2000/svg">
<g id="material-symbols:close-rounded">
<path id="Vector" d="M23 25.6834L13.6084 35.075C13.257 35.4264 12.8098 35.6021 12.2667 35.6021C11.7236 35.6021 11.2764 35.4264 10.925 35.075C10.5736 34.7236 10.3979 34.2764 10.3979 33.7334C10.3979 33.1903 10.5736 32.7431 10.925 32.3917L20.3167 23L10.925 13.6084C10.5736 13.257 10.3979 12.8098 10.3979 12.2667C10.3979 11.7236 10.5736 11.2764 10.925 10.925C11.2764 10.5736 11.7236 10.3979 12.2667 10.3979C12.8098 10.3979 13.257 10.5736 13.6084 10.925L23 20.3167L32.3917 10.925C32.7431 10.5736 33.1903 10.3979 33.7334 10.3979C34.2764 10.3979 34.7236 10.5736 35.075 10.925C35.4264 11.2764 35.6021 11.7236 35.6021 12.2667C35.6021 12.8098 35.4264 13.257 35.075 13.6084L25.6834 23L35.075 32.3917C35.4264 32.7431 35.6021 33.1903 35.6021 33.7334C35.6021 34.2764 35.4264 34.7236 35.075 35.075C34.7236 35.4264 34.2764 35.6021 33.7334 35.6021C33.1903 35.6021 32.7431 35.4264 32.3917 35.075L23 25.6834Z" fill="#ED2027"/>
</g>
</svg>
