<svg width="47" height="32" viewBox="0 0 47 32" fill="none" xmlns="http://www.w3.org/2000/svg">
<path d="M47 30.0061C47 31.1125 46.1784 32 45.1792 32H2C0.895429 32 0 31.1046 0 30C0 28.8954 0.895431 28 2 28H45.1792C46.1895 28.0122 47 28.9119 47 30.0061Z" fill="#ED2027"/>
<path d="M47 16.0061C47 17.1125 46.1784 18 45.1792 18H2C0.895429 18 0 17.1046 0 16C0 14.8954 0.895431 14 2 14H45.1792C46.1895 14.0122 47 14.9119 47 16.0061Z" fill="#ED2027"/>
<path d="M47 2.00608C47 3.11246 46.1784 4 45.1792 4H2C0.895429 4 0 3.10457 0 2V2C0 0.895431 0.895431 0 2 0H45.1792C46.1895 0.0121581 47 0.911854 47 2.00608Z" fill="#ED2027"/>
</svg>
