<svg width="62" height="54" viewBox="0 0 62 54" fill="none" xmlns="http://www.w3.org/2000/svg">
<g id="Vector">
<path d="M52.9462 21.1027C52.9462 34.4986 40.3794 45.3581 24.8796 45.3581C24.1296 45.3592 23.3804 45.334 22.6334 45.2829C26.7998 49.0169 32.6219 51.3359 39.0639 51.3359C41.3365 51.3392 43.5998 51.0449 45.7956 50.4605C47.4671 51.3073 51.3118 52.9322 57.7798 53.9906C58.3503 54.0821 58.7889 53.4871 58.5624 52.955C57.5475 50.5635 56.6301 47.3767 56.352 44.4703C59.8698 40.9516 62 36.3459 62 31.3111C62 24.4327 58.0275 18.3644 51.9765 14.7591C52.6089 16.7812 52.9462 18.9079 52.9462 21.1027Z" fill="#C9CACE"/>
<path fill-rule="evenodd" clip-rule="evenodd" d="M49.711 21.2658C49.711 33.0105 38.582 42.5315 24.8555 42.5315C22.3927 42.535 19.9401 42.2225 17.5604 41.6019C15.7491 42.5011 11.5827 44.2267 4.57342 45.3507C3.95513 45.4479 3.47977 44.816 3.72522 44.251C4.82508 41.7113 5.8193 38.327 6.12067 35.2404C2.30846 31.5037 0 26.6126 0 21.2658C0 9.52098 11.1291 0 24.8555 0C38.582 0 49.711 9.52098 49.711 21.2658ZM14.9205 15.1143C14.0417 15.1143 13.3293 15.8244 13.3293 16.7004C13.3293 17.5763 14.0417 18.2864 14.9205 18.2864H26.3886C27.2674 18.2864 27.9799 17.5763 27.9799 16.7004C27.9799 15.8244 27.2674 15.1143 26.3886 15.1143H14.9205ZM14.9205 25.9434C14.0416 25.9434 13.3292 26.6535 13.3292 27.5295C13.3292 28.4054 14.0416 29.1155 14.9205 29.1155H35.4423C36.3211 29.1155 37.0335 28.4054 37.0335 27.5295C37.0335 26.6535 36.3211 25.9434 35.4423 25.9434H14.9205Z" fill="#C9CACE"/>
</g>
</svg>
