<svg width="51" height="50" viewBox="0 0 51 50" fill="none" xmlns="http://www.w3.org/2000/svg">
<g id="Vector">
<path fill-rule="evenodd" clip-rule="evenodd" d="M25.298 0.641026C25.298 0.471015 25.2314 0.307968 25.1128 0.187752C24.9942 0.0675366 24.8333 0 24.6656 0H6.95695C5.11186 0 3.34233 0.742901 2.03764 2.06527C0.732962 3.38764 0 5.18117 0 7.05128V42.9487C0 44.8188 0.732962 46.6124 2.03764 47.9347C3.34233 49.2571 5.11186 50 6.95695 50H32.255C34.1001 50 35.8696 49.2571 37.1743 47.9347C38.479 46.6124 39.2119 44.8188 39.2119 42.9487V40.1256L38.3752 40.9714L31.5699 42.5599L31.3418 42.5833C31.0587 42.6122 30.7739 42.6171 30.4902 42.5978C29.8003 42.5694 29.1228 42.3974 28.5003 42.0918C27.8257 41.7606 27.2325 41.2809 26.7642 40.6876C26.296 40.0943 25.9644 39.4025 25.7937 38.6627C25.623 37.9229 25.6175 37.1538 25.7776 36.4115L25.7824 36.3891L27.3041 29.7328L39.2098 17.632C39.1976 17.4813 39.133 17.3391 39.0267 17.2313C38.9081 17.1111 38.7472 17.0436 38.5795 17.0436H27.1954C26.6922 17.0436 26.2096 16.841 25.8537 16.4803C25.4979 16.1197 25.298 15.6305 25.298 15.1205V0.641026ZM5.03454 20.9234C5.03454 19.9038 5.85003 19.0773 6.85599 19.0773H14.749C15.7549 19.0773 16.5704 19.9038 16.5704 20.9234C16.5704 21.943 15.7549 22.7696 14.749 22.7696H6.85599C5.85003 22.7696 5.03454 21.943 5.03454 20.9234ZM5.03454 30.1539C5.03454 29.1343 5.85003 28.3078 6.85599 28.3078H20.8205C21.8265 28.3078 22.642 29.1343 22.642 30.1539C22.642 31.1735 21.8265 32.0001 20.8205 32.0001H6.85599C5.85003 32.0001 5.03454 31.1735 5.03454 30.1539ZM5.03445 39.3851C5.03445 38.3655 5.84994 37.539 6.85591 37.539H20.8204C21.8264 37.539 22.6419 38.3655 22.6419 39.3851C22.6419 40.4047 21.8264 41.2313 20.8204 41.2313H6.85591C5.84994 41.2313 5.03445 40.4047 5.03445 39.3851Z" fill="#C9CACE"/>
<path d="M39.2119 34.9111V22.8589L30.6182 31.5934L29.3364 37.2002C29.2922 37.4052 29.2937 37.6176 29.3409 37.8219C29.388 38.0262 29.4796 38.2172 29.6089 38.381C29.7382 38.5449 29.902 38.6773 30.0883 38.7688C30.2746 38.8602 30.4787 38.9084 30.6857 38.9096C30.7821 38.9195 30.8793 38.9195 30.9757 38.9096L36.5413 37.6105L39.2119 34.9111Z" fill="#C9CACE"/>
<path d="M29.3043 2.15181C29.3043 1.70404 29.7479 1.41932 30.0766 1.69917C30.3548 1.93766 30.6053 2.21508 30.8191 2.53144L37.7448 12.745C37.9011 12.9786 37.731 13.2803 37.4597 13.2803H29.879C29.7266 13.2803 29.5804 13.2162 29.4726 13.1021C29.3649 12.9881 29.3043 12.8333 29.3043 12.672V2.15181Z" fill="#C9CACE"/>
<path d="M30.6182 31.5934L29.3364 37.2002C29.2922 37.4052 29.2937 37.6176 29.3409 37.8219C29.388 38.0262 29.4796 38.2172 29.6089 38.381C29.7382 38.5449 29.902 38.6773 30.0883 38.7688C30.2746 38.8602 30.4787 38.9084 30.6857 38.9096C30.7821 38.9195 30.8793 38.9195 30.9757 38.9096L36.5413 37.6105L46.3046 27.7417L40.341 21.711L30.6182 31.5934Z" fill="#C9CACE"/>
<path d="M50.5867 21.4189L46.6065 17.3847C46.3448 17.1208 45.9907 16.9727 45.6216 16.9727C45.2524 16.9727 44.8983 17.1208 44.6366 17.3847L42.4239 19.6274L48.3807 25.665L50.5935 23.4223C50.723 23.2904 50.8255 23.1339 50.8953 22.9618C50.965 22.7896 51.0006 22.6053 51 22.4192C50.9994 22.2331 50.9625 22.049 50.8916 21.8773C50.8207 21.7057 50.7171 21.5499 50.5867 21.4189Z" fill="#C9CACE"/>
</g>
</svg>
