<svg width="0" height="0" class="hidden">
  <symbol fill="none" xmlns="http://www.w3.org/2000/svg" viewBox="0 0 24 24" id="check">
    <g id="Ic_24-Check">
      <path id="Vector" d="M20 6L9 17L4 12" stroke="currentColor" stroke-width="2" stroke-linecap="round" stroke-linejoin="round"></path>
    </g>
  </symbol>
   <symbol fill="none" xmlns="http://www.w3.org/2000/svg" viewBox="0 0 36 36" id="star">
    <g id="Ic_24-Star">
      <path id="Star 5" d="M16.0438 6.02137C16.6596 4.1261 19.3409 4.1261 19.9567 6.02136L21.5796 11.0162C21.855 11.8638 22.6449 12.4377 23.5361 12.4377H28.788C30.7808 12.4377 31.6094 14.9878 29.9972 16.1591L25.7483 19.2461C25.0273 19.7699 24.7256 20.6985 25.001 21.5461L26.6239 26.5409C27.2397 28.4362 25.0705 30.0122 23.4583 28.8409L19.2094 25.7539C18.4884 25.2301 17.5121 25.2301 16.7911 25.7539L12.5422 28.8409C10.93 30.0122 8.76075 28.4362 9.37656 26.5409L10.9995 21.5461C11.2749 20.6985 10.9732 19.7699 10.2522 19.2461L6.0033 16.1591C4.39108 14.9878 5.21965 12.4377 7.21245 12.4377H12.4644C13.3556 12.4377 14.1454 11.8638 14.4208 11.0162L16.0438 6.02137Z" fill="currentColor"></path>
    </g>
  </symbol>
  <symbol fill="none" xmlns="http://www.w3.org/2000/svg" viewBox="0 0 24 24" id="arrow-left">
    <g id="IC_arrow-Left">
      <path id="Vector" d="M19 12L5 12" stroke="currentColor" stroke-width="2" stroke-linecap="round" stroke-linejoin="round"></path>
      <path id="Vector_2" d="M12 19L5 12L12 5" stroke="currentColor" stroke-width="2" stroke-linecap="round" stroke-linejoin="round"></path>
    </g>
  </symbol>
  <symbol fill="none" xmlns="http://www.w3.org/2000/svg" viewBox="0 0 24 24" id="arrow-right">
    <g id="IC_arrow-Right">
      <path id="Vector" d="M5 12H19" stroke="currentColor" stroke-width="2" stroke-linecap="round" stroke-linejoin="round"></path>
      <path id="Vector_2" d="M12 5L19 12L12 19" stroke="currentColor" stroke-width="2" stroke-linecap="round" stroke-linejoin="round"></path>
    </g>
  </symbol>
  <symbol fill="none" xmlns="http://www.w3.org/2000/svg" viewBox="0 0 16 16" id="phone">
    <g id="IC_phone">
      <path id="Vector" d="M14.667 11.2797V13.2797C14.6677 13.4654 14.6297 13.6492 14.5553 13.8193C14.4809 13.9894 14.3718 14.1421 14.235 14.2676C14.0982 14.3932 13.9367 14.4887 13.7608 14.5482C13.5849 14.6077 13.3985 14.6298 13.2136 14.6131C11.1622 14.3902 9.19162 13.6892 7.46028 12.5664C5.8495 11.5428 4.48384 10.1772 3.46028 8.56641C2.3336 6.82721 1.63244 4.84707 1.41361 2.78641C1.39695 2.60205 1.41886 2.41625 1.47795 2.24082C1.53703 2.0654 1.63199 1.9042 1.75679 1.76749C1.88159 1.63077 2.03348 1.52155 2.20281 1.44675C2.37213 1.37196 2.55518 1.33325 2.74028 1.33307H4.74028C5.06382 1.32989 5.37748 1.44446 5.62279 1.65543C5.8681 1.8664 6.02833 2.15937 6.07362 2.47974C6.15803 3.11978 6.31458 3.74822 6.54028 4.35307C6.62998 4.59169 6.64939 4.85102 6.59622 5.10033C6.54305 5.34964 6.41953 5.57848 6.24028 5.75974L5.39362 6.60641C6.34265 8.27544 7.72459 9.65737 9.39362 10.6064L10.2403 9.75974C10.4215 9.5805 10.6504 9.45697 10.8997 9.4038C11.149 9.35063 11.4083 9.37004 11.647 9.45974C12.2518 9.68544 12.8802 9.84199 13.5203 9.92641C13.8441 9.97209 14.1399 10.1352 14.3513 10.3847C14.5627 10.6343 14.6751 10.9528 14.667 11.2797Z" fill="currentColor"></path>
    </g>
  </symbol>
  <symbol fill="none" xmlns="http://www.w3.org/2000/svg" viewBox="0 0 24 25" id="tiktok">
    <g id="Group 1000010742">
      <path id="Vector" d="M12 24.2461C18.6274 24.2461 24 18.8735 24 12.2461C24 5.61868 18.6274 0.246094 12 0.246094C5.37258 0.246094 0 5.61868 0 12.2461C0 18.8735 5.37258 24.2461 12 24.2461Z" fill="currentColor"></path>
      <g id="Group">
        <path id="Vector_2" d="M18.0484 8.70031C17.3366 8.70031 16.68 8.46452 16.1526 8.06676C15.5478 7.61079 15.1133 6.94192 14.9598 6.171C14.9218 5.98052 14.9014 5.78396 14.8994 5.58252H12.8663V11.138L12.8638 14.181C12.8638 14.9946 12.334 15.6844 11.5997 15.927C11.3865 15.9974 11.1564 16.0308 10.9167 16.0176C10.6107 16.0008 10.3241 15.9085 10.0749 15.7594C9.5446 15.4423 9.18508 14.8669 9.17534 14.2088C9.16 13.1802 9.99157 12.3415 11.0195 12.3415C11.2224 12.3415 11.4172 12.3747 11.5997 12.4348V10.9164V10.3705C11.4072 10.342 11.2114 10.3272 11.0134 10.3272C9.88829 10.3272 8.83604 10.7948 8.08387 11.6374C7.51536 12.2741 7.17436 13.0864 7.12174 13.9382C7.05281 15.0572 7.46226 16.1209 8.25632 16.9057C8.373 17.0209 8.49552 17.1278 8.62364 17.2265C9.30444 17.7504 10.1367 18.0344 11.0134 18.0344C11.2114 18.0344 11.4072 18.0198 11.5997 17.9913C12.4186 17.87 13.1741 17.4951 13.7704 16.9057C14.5031 16.1815 14.9079 15.2201 14.9123 14.1969L14.9018 9.65269C15.2514 9.92233 15.6335 10.1454 16.0437 10.3186C16.6817 10.5878 17.3581 10.7242 18.0542 10.7239V9.24762V8.69982C18.0547 8.70031 18.0489 8.70031 18.0484 8.70031Z" fill="currentColor"></path>
      </g>
    </g>
  </symbol>
  <symbol fill="none" xmlns="http://www.w3.org/2000/svg" viewBox="0 0 24 25" id="twitter">
    <g id="Group 1000010743">
      <path id="Vector" d="M12 24.2461C18.6274 24.2461 24 18.8735 24 12.2461C24 5.61867 18.6274 0.246094 12 0.246094C5.37258 0.246094 0 5.61867 0 12.2461C0 18.8735 5.37258 24.2461 12 24.2461Z" fill="currentColor"></path>
      <path id="Vector_2" d="M12.7465 10.8553L17.382 5.58276H16.2836L12.2585 10.1608L9.04378 5.58276H5.33594L10.1973 12.5056L5.33594 18.0347H6.43447L10.685 13.2001L14.08 18.0347H17.7878L12.7462 10.8553H12.7465ZM6.83027 6.39195H8.51754L16.284 17.2623H14.5968L6.83027 6.39195Z" fill="currentColor"></path>
    </g>
  </symbol>
  <symbol fill="none" xmlns="http://www.w3.org/2000/svg" viewBox="0 0 24 24" id="facebook">
    <g id="Group 1000010746">
      <path id="Vector" d="M23.9999 11.9977C23.9991 9.70413 23.3412 7.45878 22.1041 5.52753C20.867 3.59628 19.1026 2.06 17.0197 1.10056C14.9368 0.141115 12.6226 -0.201302 10.3512 0.113841C8.07973 0.428984 5.94613 1.38849 4.20297 2.87877C2.45982 4.36904 1.18012 6.32768 0.515326 8.5228C-0.149466 10.7179 -0.171508 13.0576 0.451855 15.2648C1.07522 17.4721 2.31788 19.4545 4.03268 20.9773C5.74749 22.5001 7.86261 23.4996 10.1277 23.8575V15.4715H7.09552V11.9977H10.1481V9.35169C10.1481 6.34604 11.9389 4.68377 14.6794 4.68377C15.5885 4.69546 16.4955 4.77483 17.3928 4.92124V7.87261H15.8801C15.6191 7.83125 15.352 7.85004 15.0994 7.92753C14.8467 8.00503 14.615 8.13918 14.422 8.31978C14.229 8.50038 14.0798 8.72266 13.9857 8.96968C13.8916 9.2167 13.8551 9.48194 13.879 9.7452V11.9977H17.2097L16.6806 15.4715H13.879V23.8575C16.701 23.4086 19.2705 21.9678 21.1256 19.7939C22.9807 17.6201 23.9999 14.8558 23.9999 11.9977Z" fill="currentColor"></path>
      <path id="Vector_2" d="M16.675 15.4718L17.2041 11.998H13.8802V9.74551C13.8575 9.48618 13.8935 9.22508 13.9853 8.98151C14.0772 8.73795 14.2226 8.51814 14.4108 8.33836C14.599 8.15857 14.8252 8.0234 15.0727 7.94283C15.3202 7.86227 15.5826 7.83837 15.8406 7.87292H17.3533V4.92155C16.456 4.77514 15.549 4.69577 14.6399 4.68408C11.9265 4.68408 10.1085 6.34635 10.1085 9.35199V11.998H7.09668V15.4718H10.1492V23.8578C11.3902 24.0478 12.6528 24.0478 13.8937 23.8578V15.4718H16.675Z" fill="currentColor"></path>
    </g>
  </symbol>
  <symbol fill="none" xmlns="http://www.w3.org/2000/svg" viewBox="0 0 24 24" id="instagram">
    <g id="Group 1000010745">
      <path id="Vector" d="M12 24C18.6274 24 24 18.6274 24 12C24 5.37258 18.6274 0 12 0C5.37258 0 0 5.37258 0 12C0 18.6274 5.37258 24 12 24Z" fill="currentColor"></path>
      <g id="Group 1000010744">
        <path id="Vector_2" d="M15.727 7.46191C15.5633 7.46191 15.4033 7.51045 15.2672 7.60139C15.1311 7.69232 15.0251 7.82158 14.9624 7.9728C14.8998 8.12402 14.8834 8.29042 14.9153 8.45095C14.9472 8.61149 15.026 8.75895 15.1418 8.87469C15.2575 8.99043 15.405 9.06925 15.5655 9.10118C15.7261 9.13312 15.8925 9.11673 16.0437 9.05409C16.1949 8.99146 16.3242 8.88538 16.4151 8.74928C16.506 8.61319 16.5546 8.45318 16.5546 8.2895C16.5546 8.07001 16.4674 7.85951 16.3122 7.70431C16.157 7.54911 15.9465 7.46191 15.727 7.46191Z" fill="currentColor"></path>
        <path id="Vector_3" d="M12.0572 8.51953C11.3716 8.51953 10.7014 8.72283 10.1314 9.10372C9.56133 9.48461 9.11707 10.026 8.85471 10.6594C8.59234 11.2928 8.52367 11.9897 8.65742 12.6622C8.79117 13.3346 9.12131 13.9522 9.60609 14.437C10.0909 14.9218 10.7086 15.2519 11.381 15.3857C12.0534 15.5194 12.7503 15.4508 13.3837 15.1884C14.0171 14.926 14.5585 14.4817 14.9394 13.9117C15.3203 13.3417 15.5236 12.6715 15.5236 11.9859C15.5236 11.5307 15.4339 11.0799 15.2597 10.6594C15.0855 10.2388 14.8302 9.85669 14.5083 9.53481C14.1864 9.21293 13.8043 8.95759 13.3837 8.78339C12.9632 8.60919 12.5124 8.51953 12.0572 8.51953ZM12.0572 14.2041C11.6188 14.2028 11.1906 14.0715 10.8267 13.827C10.4628 13.5824 10.1796 13.2355 10.0127 12.8301C9.84586 12.4246 9.80289 11.9788 9.88925 11.549C9.9756 11.1192 10.1874 10.7246 10.4979 10.415C10.8084 10.1055 11.2036 9.89488 11.6337 9.80983C12.0638 9.72479 12.5095 9.76911 12.9144 9.9372C13.3193 10.1053 13.6654 10.3896 13.9088 10.7542C14.1523 11.1189 14.2822 11.5475 14.2822 11.9859C14.2804 12.5748 14.0452 13.139 13.6281 13.5548C13.211 13.9706 12.6461 14.2041 12.0572 14.2041Z" fill="currentColor"></path>
        <path id="Vector_4" d="M14.8106 19.0206H9.19392C8.63894 19.0206 8.08936 18.9113 7.57663 18.6989C7.06389 18.4866 6.59803 18.1753 6.2056 17.7828C5.81317 17.3904 5.50186 16.9245 5.28948 16.4118C5.07709 15.899 4.96777 15.3495 4.96777 14.7945V9.17778C4.96777 8.05694 5.41305 6.98201 6.2056 6.18946C6.99815 5.39691 8.07308 4.95166 9.19392 4.95166H14.8106C15.9315 4.95166 17.0064 5.39691 17.7989 6.18946C18.5915 6.98201 19.0367 8.05694 19.0367 9.17778V14.7945C19.0367 15.3495 18.9275 15.899 18.7151 16.4118C18.5027 16.9245 18.1914 17.3904 17.7989 17.7828C17.4065 18.1753 16.9406 18.4866 16.4279 18.6989C15.9151 18.9113 15.3656 19.0206 14.8106 19.0206ZM9.19392 6.27444C8.42391 6.27444 7.68542 6.58033 7.14094 7.12481C6.59646 7.66929 6.29056 8.40776 6.29056 9.17778V14.7945C6.28878 15.1769 6.36258 15.5559 6.50768 15.9097C6.65279 16.2636 6.86636 16.5852 7.13614 16.8563C7.40592 17.1273 7.72658 17.3424 8.07972 17.4891C8.43285 17.6359 8.8115 17.7114 9.19392 17.7114H14.8106C15.1919 17.7114 15.5694 17.6363 15.9217 17.4904C16.2739 17.3445 16.594 17.1306 16.8636 16.861C17.1332 16.5914 17.3471 16.2714 17.493 15.9191C17.6389 15.5669 17.714 15.1894 17.714 14.8081V9.17778C17.714 8.40776 17.4081 7.66929 16.8636 7.12481C16.3191 6.58033 15.5806 6.27444 14.8106 6.27444H9.19392Z" fill="currentColor"></path>
      </g>
    </g>
  </symbol>
  <symbol xmlns="http://www.w3.org/2000/svg" viewBox="0 0 24 24" id="instagram-line">
    <path d="M12.001 9C10.3436 9 9.00098 10.3431 9.00098 12C9.00098 13.6573 10.3441 15 12.001 15C13.6583 15 15.001 13.6569 15.001 12C15.001 10.3427 13.6579 9 12.001 9ZM12.001 7C14.7614 7 17.001 9.2371 17.001 12C17.001 14.7605 14.7639 17 12.001 17C9.24051 17 7.00098 14.7629 7.00098 12C7.00098 9.23953 9.23808 7 12.001 7ZM18.501 6.74915C18.501 7.43926 17.9402 7.99917 17.251 7.99917C16.5609 7.99917 16.001 7.4384 16.001 6.74915C16.001 6.0599 16.5617 5.5 17.251 5.5C17.9393 5.49913 18.501 6.0599 18.501 6.74915ZM12.001 4C9.5265 4 9.12318 4.00655 7.97227 4.0578C7.18815 4.09461 6.66253 4.20007 6.17416 4.38967C5.74016 4.55799 5.42709 4.75898 5.09352 5.09255C4.75867 5.4274 4.55804 5.73963 4.3904 6.17383C4.20036 6.66332 4.09493 7.18811 4.05878 7.97115C4.00703 9.0752 4.00098 9.46105 4.00098 12C4.00098 14.4745 4.00753 14.8778 4.05877 16.0286C4.0956 16.8124 4.2012 17.3388 4.39034 17.826C4.5591 18.2606 4.7605 18.5744 5.09246 18.9064C5.42863 19.2421 5.74179 19.4434 6.17187 19.6094C6.66619 19.8005 7.19148 19.9061 7.97212 19.9422C9.07618 19.9939 9.46203 20 12.001 20C14.4755 20 14.8788 19.9934 16.0296 19.9422C16.8117 19.9055 17.3385 19.7996 17.827 19.6106C18.2604 19.4423 18.5752 19.2402 18.9074 18.9085C19.2436 18.5718 19.4445 18.2594 19.6107 17.8283C19.8013 17.3358 19.9071 16.8098 19.9432 16.0289C19.9949 14.9248 20.001 14.5389 20.001 12C20.001 9.52552 19.9944 9.12221 19.9432 7.97137C19.9064 7.18906 19.8005 6.66149 19.6113 6.17318C19.4434 5.74038 19.2417 5.42635 18.9084 5.09255C18.573 4.75715 18.2616 4.55693 17.8271 4.38942C17.338 4.19954 16.8124 4.09396 16.0298 4.05781C14.9258 4.00605 14.5399 4 12.001 4ZM12.001 2C14.7176 2 15.0568 2.01 16.1235 2.06C17.1876 2.10917 17.9135 2.2775 18.551 2.525C19.2101 2.77917 19.7668 3.1225 20.3226 3.67833C20.8776 4.23417 21.221 4.7925 21.476 5.45C21.7226 6.08667 21.891 6.81333 21.941 7.8775C21.9885 8.94417 22.001 9.28333 22.001 12C22.001 14.7167 21.991 15.0558 21.941 16.1225C21.8918 17.1867 21.7226 17.9125 21.476 18.55C21.2218 19.2092 20.8776 19.7658 20.3226 20.3217C19.7668 20.8767 19.2076 21.22 18.551 21.475C17.9135 21.7217 17.1876 21.89 16.1235 21.94C15.0568 21.9875 14.7176 22 12.001 22C9.28431 22 8.94514 21.99 7.87848 21.94C6.81431 21.8908 6.08931 21.7217 5.45098 21.475C4.79264 21.2208 4.23514 20.8767 3.67931 20.3217C3.12348 19.7658 2.78098 19.2067 2.52598 18.55C2.27848 17.9125 2.11098 17.1867 2.06098 16.1225C2.01348 15.0558 2.00098 14.7167 2.00098 12C2.00098 9.28333 2.01098 8.94417 2.06098 7.8775C2.11014 6.8125 2.27848 6.0875 2.52598 5.45C2.78014 4.79167 3.12348 4.23417 3.67931 3.67833C4.23514 3.1225 4.79348 2.78 5.45098 2.525C6.08848 2.2775 6.81348 2.11 7.87848 2.06C8.94514 2.0125 9.28431 2 12.001 2Z" fill="currentColor"></path>
  </symbol>
  <symbol xmlns="http://www.w3.org/2000/svg" viewBox="0 0 24 24" id="linkedin-fill">
    <path d="M6.94048 4.99993C6.94011 5.81424 6.44608 6.54702 5.69134 6.85273C4.9366 7.15845 4.07187 6.97605 3.5049 6.39155C2.93793 5.80704 2.78195 4.93715 3.1105 4.19207C3.43906 3.44699 4.18654 2.9755 5.00048 2.99993C6.08155 3.03238 6.94097 3.91837 6.94048 4.99993ZM7.00048 8.47993H3.00048V20.9999H7.00048V8.47993ZM13.3205 8.47993H9.34048V20.9999H13.2805V14.4299C13.2805 10.7699 18.0505 10.4299 18.0505 14.4299V20.9999H22.0005V13.0699C22.0005 6.89993 14.9405 7.12993 13.2805 10.1599L13.3205 8.47993Z" fill="currentColor"></path>
  </symbol>
  <symbol xmlns="http://www.w3.org/2000/svg" viewBox="0 0 24 24" id="twitter-fill">
    <path d="M22.2125 5.65605C21.4491 5.99375 20.6395 6.21555 19.8106 6.31411C20.6839 5.79132 21.3374 4.9689 21.6493 4.00005C20.8287 4.48761 19.9305 4.83077 18.9938 5.01461C18.2031 4.17106 17.098 3.69303 15.9418 3.69434C13.6326 3.69434 11.7597 5.56661 11.7597 7.87683C11.7597 8.20458 11.7973 8.52242 11.8676 8.82909C8.39047 8.65404 5.31007 6.99005 3.24678 4.45941C2.87529 5.09767 2.68005 5.82318 2.68104 6.56167C2.68104 8.01259 3.4196 9.29324 4.54149 10.043C3.87737 10.022 3.22788 9.84264 2.64718 9.51973C2.64654 9.5373 2.64654 9.55487 2.64654 9.57148C2.64654 11.5984 4.08819 13.2892 6.00199 13.6731C5.6428 13.7703 5.27232 13.8194 4.90022 13.8191C4.62997 13.8191 4.36771 13.7942 4.11279 13.7453C4.64531 15.4065 6.18886 16.6159 8.0196 16.6491C6.53813 17.8118 4.70869 18.4426 2.82543 18.4399C2.49212 18.4402 2.15909 18.4205 1.82812 18.3811C3.74004 19.6102 5.96552 20.2625 8.23842 20.2601C15.9316 20.2601 20.138 13.8875 20.138 8.36111C20.138 8.1803 20.1336 7.99886 20.1256 7.81997C20.9443 7.22845 21.651 6.49567 22.2125 5.65605Z" fill="currentColor"></path>
  </symbol>
  <symbol xmlns="http://www.w3.org/2000/svg" viewBox="0 0 24 24" id="facebook-fill">
    <path d="M14 13.5H16.5L17.5 9.5H14V7.5C14 6.47062 14 5.5 16 5.5H17.5V2.1401C17.1743 2.09685 15.943 2 14.6429 2C11.9284 2 10 3.65686 10 6.69971V9.5H7V13.5H10V22H14V13.5Z" fill="currentColor"></path>
  </symbol>
  <symbol xmlns="http://www.w3.org/2000/svg" fill="none" stroke-width="1.5" stroke="currentColor" viewBox="0 0 24 24" id="arrow-right-sm">
    <path stroke-linecap="round" stroke-linejoin="round" d="M8.25 4.5l7.5 7.5-7.5 7.5"></path>
  </symbol>
  <symbol fill="none" xmlns="http://www.w3.org/2000/svg" viewBox="0 0 24 24" id="btn-arrow-right">
    <g id="arrow-right">
      <path id="Vector" d="M5 12H19" stroke="currentColor" stroke-width="2" stroke-linecap="round" stroke-linejoin="round"></path>
      <path id="Vector_2" d="M15 8L19 12L15 16" stroke="currentColor" stroke-width="2" stroke-linecap="round" stroke-linejoin="round"></path>
    </g>
  </symbol>
    <symbol fill="none" xmlns="http://www.w3.org/2000/svg" viewBox="0 0 10 16" id="btn-arrow-right-2">
    <g id="Arrow - Down 2">
      <path id="Stroke 1" d="M2.28613 1.71436L8.28613 7.71436L2.28613 13.7144" stroke="currentColor" stroke-width="3" stroke-linecap="round" stroke-linejoin="round"></path>
    </g>
  </symbol>
  <symbol xmlns="http://www.w3.org/2000/svg" fill="none" stroke="currentColor" stroke-width="2" stroke-linecap="round" stroke-linejoin="round" viewBox="0 0 24 24" id="arrow-down">
    <path d="m6 9 6 6 6-6"></path>
  </symbol>
</svg>