<svg width="36" height="36" viewBox="0 0 36 36" fill="none" xmlns="http://www.w3.org/2000/svg">
<g id="Ic_24-Star">
<path id="Star 5" d="M16.0438 6.02137C16.6596 4.1261 19.3409 4.1261 19.9567 6.02136L21.5796 11.0162C21.855 11.8638 22.6449 12.4377 23.5361 12.4377H28.788C30.7808 12.4377 31.6094 14.9878 29.9972 16.1591L25.7483 19.2461C25.0273 19.7699 24.7256 20.6985 25.001 21.5461L26.6239 26.5409C27.2397 28.4362 25.0705 30.0122 23.4583 28.8409L19.2094 25.7539C18.4884 25.2301 17.5121 25.2301 16.7911 25.7539L12.5422 28.8409C10.93 30.0122 8.76075 28.4362 9.37656 26.5409L10.9995 21.5461C11.2749 20.6985 10.9732 19.7699 10.2522 19.2461L6.0033 16.1591C4.39108 14.9878 5.21965 12.4377 7.21245 12.4377H12.4644C13.3556 12.4377 14.1454 11.8638 14.4208 11.0162L16.0438 6.02137Z" fill="#FFA928"/>
</g>
</svg>
