<svg width="24" height="25" viewBox="0 0 24 25" fill="none" xmlns="http://www.w3.org/2000/svg">
<g id="Group 1000010742">
<path id="Vector" d="M12 24.2461C18.6274 24.2461 24 18.8735 24 12.2461C24 5.61868 18.6274 0.246094 12 0.246094C5.37258 0.246094 0 5.61868 0 12.2461C0 18.8735 5.37258 24.2461 12 24.2461Z" fill="#1E1E21"/>
<g id="Group">
<path id="Vector_2" d="M18.0484 8.70031C17.3366 8.70031 16.68 8.46452 16.1526 8.06676C15.5478 7.61079 15.1133 6.94192 14.9598 6.171C14.9218 5.98052 14.9014 5.78396 14.8994 5.58252H12.8663V11.138L12.8638 14.181C12.8638 14.9946 12.334 15.6844 11.5997 15.927C11.3865 15.9974 11.1564 16.0308 10.9167 16.0176C10.6107 16.0008 10.3241 15.9085 10.0749 15.7594C9.5446 15.4423 9.18508 14.8669 9.17534 14.2088C9.16 13.1802 9.99157 12.3415 11.0195 12.3415C11.2224 12.3415 11.4172 12.3747 11.5997 12.4348V10.9164V10.3705C11.4072 10.342 11.2114 10.3272 11.0134 10.3272C9.88829 10.3272 8.83604 10.7948 8.08387 11.6374C7.51536 12.2741 7.17436 13.0864 7.12174 13.9382C7.05281 15.0572 7.46226 16.1209 8.25632 16.9057C8.373 17.0209 8.49552 17.1278 8.62364 17.2265C9.30444 17.7504 10.1367 18.0344 11.0134 18.0344C11.2114 18.0344 11.4072 18.0198 11.5997 17.9913C12.4186 17.87 13.1741 17.4951 13.7704 16.9057C14.5031 16.1815 14.9079 15.2201 14.9123 14.1969L14.9018 9.65269C15.2514 9.92233 15.6335 10.1454 16.0437 10.3186C16.6817 10.5878 17.3581 10.7242 18.0542 10.7239V9.24762V8.69982C18.0547 8.70031 18.0489 8.70031 18.0484 8.70031Z" fill="white"/>
</g>
</g>
</svg>
