<svg width="53" height="60" viewBox="0 0 53 60" fill="none" xmlns="http://www.w3.org/2000/svg">
<g id="Union">
<path fill-rule="evenodd" clip-rule="evenodd" d="M21.8471 1.70874C24.0767 -0.569583 27.7632 -0.56958 29.9928 1.70875L31.2651 3.00884C32.3445 4.11182 33.8316 4.72909 35.3811 4.71742L37.2172 4.70358C40.3855 4.6797 42.9602 7.2334 42.9368 10.3765L42.9218 12.3935C42.9106 13.9018 43.5098 15.3515 44.5851 16.4179L46.0294 17.8501C48.2472 20.0496 48.2472 23.6164 46.0294 25.8158L44.5851 27.2481C43.5098 28.3145 42.9106 29.7642 42.9218 31.2725L42.9368 33.2895C42.9602 36.4326 40.3855 38.9863 37.2172 38.9624L35.3811 38.9485C33.8316 38.9369 32.3445 39.5541 31.2651 40.6571L29.9928 41.9572C27.7632 44.2355 24.0767 44.2355 21.8471 41.9572L20.5747 40.6571C19.4953 39.5541 18.0083 38.9369 16.4587 38.9485L14.6226 38.9624C11.4544 38.9863 8.87966 36.4326 8.90304 33.2895L8.91804 31.2725C8.92925 29.7642 8.3301 28.3145 7.2548 27.2481L5.81051 25.8158C3.59265 23.6164 3.59266 20.0496 5.81052 17.8501L7.2548 16.4179C8.3301 15.3515 8.92925 13.9018 8.91804 12.3935L8.90304 10.3765C8.87966 7.23339 11.4544 4.6797 14.6226 4.70358L16.4587 4.71742C18.0083 4.72909 19.4953 4.11182 20.5747 3.00883L21.8471 1.70874ZM27.1243 21.5314L25.8217 20.2385C25.5233 19.9425 25.1189 19.7756 24.6968 19.7745C24.2748 19.7734 23.8695 19.9381 23.5695 20.2326L14.5126 28.5247C14.1828 28.833 13.9663 29.226 13.9463 29.666C13.9367 29.8843 13.9726 30.1021 14.0516 30.306C14.1307 30.5099 14.2513 30.6954 14.4058 30.851L16.3516 32.8026L16.3532 32.8044L16.3551 32.8061C16.6558 33.1034 17.0626 33.271 17.4872 33.2723H17.546C17.9896 33.256 18.3867 33.0496 18.702 32.7195L27.1189 23.7755C27.2681 23.6287 27.3867 23.4541 27.4678 23.2618C27.5488 23.0694 27.5908 22.8631 27.5914 22.6546C27.5919 22.4461 27.5509 22.2395 27.4707 22.0468C27.3906 21.854 27.2729 21.6789 27.1243 21.5314ZM37.5937 18.9185L37.5783 18.9031L35.8685 17.2242C35.7683 17.1252 35.6494 17.0468 35.5185 16.9937C35.3877 16.9405 35.2475 16.9135 35.1061 16.9144C34.877 16.9146 34.6538 16.9863 34.468 17.1193C34.468 17.1042 34.4695 17.0893 34.4709 17.0754L34.4725 17.0589L34.4727 17.0561C34.4951 16.7344 34.5289 16.2499 34.213 15.8106C33.8364 15.307 33.4228 14.8315 32.9757 14.3881L32.9734 14.3857L32.9717 14.3842C32.3072 13.7348 30.8608 12.5117 28.6451 11.6153C27.8048 11.2732 26.9051 11.0975 25.9968 11.0981C24.4222 11.0981 23.2248 11.8029 22.7663 12.2207C22.5066 12.4667 22.2699 12.7354 22.0588 13.0235C21.958 13.1616 21.9047 13.3283 21.907 13.4988C21.9093 13.6693 21.9671 13.8345 22.0716 13.9698C22.1761 14.1051 22.3219 14.2034 22.4872 14.25C22.6526 14.2965 22.8287 14.2889 22.9893 14.2282C23.1292 14.1764 23.2722 14.1329 23.4174 14.0981C23.7197 14.0346 24.0299 14.0154 24.3379 14.0411C24.9959 14.0951 25.7743 14.4193 26.1185 14.6891C26.7023 15.1548 26.9832 15.7824 27.0296 16.7228C27.0385 16.9119 26.6444 17.6207 26.0317 18.4295C25.915 18.5821 25.858 18.7715 25.8713 18.9626C25.8846 19.1538 25.9673 19.3336 26.104 19.4689L27.8208 21.172C27.9651 21.3155 28.1593 21.3986 28.3635 21.4043C28.5677 21.4101 28.7663 21.3379 28.9185 21.2027C29.4039 20.7726 30.1433 20.1242 30.4018 19.9653C30.7854 19.7312 31.0598 19.6862 31.1352 19.6782C31.3307 19.6592 31.5273 19.7004 31.6985 19.796C31.6993 19.8045 31.6984 19.8131 31.6957 19.8212C31.694 19.8263 31.6916 19.8312 31.6887 19.8357C31.687 19.8383 31.6851 19.8408 31.683 19.8431L31.5922 19.9287L31.5772 19.9426C31.4769 20.0417 31.3973 20.1596 31.3431 20.2894C31.2889 20.4192 31.2611 20.5584 31.2613 20.6989C31.2616 20.8394 31.2898 20.9785 31.3445 21.1081C31.3991 21.2377 31.4791 21.3553 31.5797 21.4542L33.289 23.1326C33.3892 23.2315 33.5082 23.3098 33.639 23.3629C33.7699 23.416 33.91 23.4429 34.0514 23.4419C34.3353 23.4424 34.608 23.3322 34.8107 23.135L37.5798 20.4217C37.5892 20.4123 37.5987 20.4024 37.6077 20.3925C37.7935 20.1905 37.8953 19.9262 37.8927 19.6528C37.8901 19.3793 37.7833 19.117 37.5937 18.9185Z" fill="#C9CACE"/>
<path d="M30.0664 46.9932L36.4529 59.2391C36.9711 60.2327 38.3942 60.2587 38.949 59.2846L42.1873 53.5982L38.8998 48.2614C38.4911 47.5979 38.702 46.7314 39.3708 46.3259C40.0395 45.9205 40.913 46.1296 41.3217 46.7931L44.6459 52.1895L51.4343 52.8762C52.5562 52.9897 53.3569 51.8223 52.8387 50.8287L46.0805 37.87C44.4143 41.0494 41.0523 43.2149 37.1849 43.1857L35.3488 43.1719C34.9614 43.169 34.5897 43.3233 34.3198 43.5991L33.0475 44.8991C32.1646 45.8013 31.1512 46.4993 30.0664 46.9932Z" fill="#C9CACE"/>
<path d="M6.3824 38.8998L0.161272 50.8285C-0.356951 51.8222 0.443758 52.9896 1.56568 52.8761L8.25078 52.1998L11.5814 46.793C11.9901 46.1295 12.8636 45.9203 13.5324 46.3258C14.2012 46.7312 14.412 47.5978 14.0033 48.2612L10.7661 53.5164L14.051 59.2845C14.6058 60.2586 16.0289 60.2326 16.5471 59.2389L22.736 47.3719C21.2887 46.8876 19.9318 46.0633 18.7924 44.899L17.5201 43.5989C17.2502 43.3232 16.8785 43.1688 16.4911 43.1718L14.655 43.1856C11.2214 43.2115 8.18612 41.5074 6.3824 38.8998Z" fill="#C9CACE"/>
</g>
</svg>
